<mxfile host="app.diagrams.net" agent="Mozilla/5.0 (Windows NT 10.0; Win64; x64) AppleWebKit/537.36 (KHTML, like Gecko) Chrome/131.0.0.0 Safari/537.36" version="25.0.3">
  <diagram name="Page-1" id="EBwLO6QGOwt3dh95xcYI">
    <mxGraphModel dx="4037" dy="1658" grid="1" gridSize="10" guides="1" tooltips="1" connect="1" arrows="1" fold="1" page="1" pageScale="1" pageWidth="850" pageHeight="1100" math="0" shadow="0">
      <root>
        <mxCell id="0" />
        <mxCell id="1" parent="0" />
        <mxCell id="zRqvrmHokOxKd8AB4O5T-6" style="edgeStyle=orthogonalEdgeStyle;rounded=0;orthogonalLoop=1;jettySize=auto;html=1;entryX=0.5;entryY=0;entryDx=0;entryDy=0;" edge="1" parent="1" source="zRqvrmHokOxKd8AB4O5T-1" target="zRqvrmHokOxKd8AB4O5T-4">
          <mxGeometry relative="1" as="geometry" />
        </mxCell>
        <mxCell id="zRqvrmHokOxKd8AB4O5T-1" value="&lt;font style=&quot;font-size: 24px;&quot;&gt;start&lt;/font&gt;" style="strokeWidth=2;html=1;shape=mxgraph.flowchart.start_1;whiteSpace=wrap;" vertex="1" parent="1">
          <mxGeometry x="375" y="40" width="100" height="60" as="geometry" />
        </mxCell>
        <mxCell id="zRqvrmHokOxKd8AB4O5T-9" style="edgeStyle=orthogonalEdgeStyle;rounded=0;orthogonalLoop=1;jettySize=auto;html=1;entryX=0.5;entryY=0;entryDx=0;entryDy=0;" edge="1" parent="1" source="zRqvrmHokOxKd8AB4O5T-3" target="zRqvrmHokOxKd8AB4O5T-8">
          <mxGeometry relative="1" as="geometry" />
        </mxCell>
        <mxCell id="zRqvrmHokOxKd8AB4O5T-11" style="edgeStyle=orthogonalEdgeStyle;rounded=0;orthogonalLoop=1;jettySize=auto;html=1;entryX=0.5;entryY=0;entryDx=0;entryDy=0;" edge="1" parent="1" source="zRqvrmHokOxKd8AB4O5T-3" target="zRqvrmHokOxKd8AB4O5T-10">
          <mxGeometry relative="1" as="geometry" />
        </mxCell>
        <mxCell id="zRqvrmHokOxKd8AB4O5T-3" value="if (number &amp;lt; 0 || number &amp;gt; 30" style="rhombus;whiteSpace=wrap;html=1;" vertex="1" parent="1">
          <mxGeometry x="327" y="250" width="196" height="80" as="geometry" />
        </mxCell>
        <mxCell id="zRqvrmHokOxKd8AB4O5T-7" style="edgeStyle=orthogonalEdgeStyle;rounded=0;orthogonalLoop=1;jettySize=auto;html=1;entryX=0.5;entryY=0;entryDx=0;entryDy=0;" edge="1" parent="1" source="zRqvrmHokOxKd8AB4O5T-4" target="zRqvrmHokOxKd8AB4O5T-3">
          <mxGeometry relative="1" as="geometry" />
        </mxCell>
        <mxCell id="zRqvrmHokOxKd8AB4O5T-4" value="input number" style="shape=parallelogram;perimeter=parallelogramPerimeter;whiteSpace=wrap;html=1;fixedSize=1;" vertex="1" parent="1">
          <mxGeometry x="288" y="150" width="275" height="50" as="geometry" />
        </mxCell>
        <mxCell id="zRqvrmHokOxKd8AB4O5T-13" style="edgeStyle=orthogonalEdgeStyle;rounded=0;orthogonalLoop=1;jettySize=auto;html=1;" edge="1" parent="1" source="zRqvrmHokOxKd8AB4O5T-8" target="zRqvrmHokOxKd8AB4O5T-12">
          <mxGeometry relative="1" as="geometry" />
        </mxCell>
        <mxCell id="zRqvrmHokOxKd8AB4O5T-8" value="switch (number)" style="rhombus;whiteSpace=wrap;html=1;" vertex="1" parent="1">
          <mxGeometry x="170" y="340" width="142" height="70" as="geometry" />
        </mxCell>
        <mxCell id="zRqvrmHokOxKd8AB4O5T-10" value="output&lt;br&gt;&quot;please enter a number between 0 and 30&quot;" style="shape=parallelogram;perimeter=parallelogramPerimeter;whiteSpace=wrap;html=1;fixedSize=1;" vertex="1" parent="1">
          <mxGeometry x="530" y="360" width="275" height="50" as="geometry" />
        </mxCell>
        <mxCell id="zRqvrmHokOxKd8AB4O5T-50" style="edgeStyle=orthogonalEdgeStyle;rounded=0;orthogonalLoop=1;jettySize=auto;html=1;" edge="1" parent="1" source="zRqvrmHokOxKd8AB4O5T-12" target="zRqvrmHokOxKd8AB4O5T-49">
          <mxGeometry relative="1" as="geometry" />
        </mxCell>
        <mxCell id="zRqvrmHokOxKd8AB4O5T-12" value="case 0" style="rhombus;whiteSpace=wrap;html=1;" vertex="1" parent="1">
          <mxGeometry x="367" y="490" width="116.5" height="50" as="geometry" />
        </mxCell>
        <mxCell id="zRqvrmHokOxKd8AB4O5T-52" style="edgeStyle=orthogonalEdgeStyle;rounded=0;orthogonalLoop=1;jettySize=auto;html=1;entryX=1;entryY=0.5;entryDx=0;entryDy=0;" edge="1" parent="1" source="zRqvrmHokOxKd8AB4O5T-15" target="zRqvrmHokOxKd8AB4O5T-51">
          <mxGeometry relative="1" as="geometry" />
        </mxCell>
        <mxCell id="zRqvrmHokOxKd8AB4O5T-53" style="edgeStyle=orthogonalEdgeStyle;rounded=0;orthogonalLoop=1;jettySize=auto;html=1;entryX=0.5;entryY=0;entryDx=0;entryDy=0;" edge="1" parent="1" source="zRqvrmHokOxKd8AB4O5T-15" target="zRqvrmHokOxKd8AB4O5T-17">
          <mxGeometry relative="1" as="geometry" />
        </mxCell>
        <mxCell id="zRqvrmHokOxKd8AB4O5T-15" value="case 1" style="rhombus;whiteSpace=wrap;html=1;" vertex="1" parent="1">
          <mxGeometry x="220" y="490" width="116.5" height="50" as="geometry" />
        </mxCell>
        <mxCell id="zRqvrmHokOxKd8AB4O5T-55" style="edgeStyle=orthogonalEdgeStyle;rounded=0;orthogonalLoop=1;jettySize=auto;html=1;entryX=1;entryY=0.5;entryDx=0;entryDy=0;" edge="1" parent="1" source="zRqvrmHokOxKd8AB4O5T-17" target="zRqvrmHokOxKd8AB4O5T-54">
          <mxGeometry relative="1" as="geometry" />
        </mxCell>
        <mxCell id="zRqvrmHokOxKd8AB4O5T-58" style="edgeStyle=orthogonalEdgeStyle;rounded=0;orthogonalLoop=1;jettySize=auto;html=1;entryX=0;entryY=0.5;entryDx=0;entryDy=0;" edge="1" parent="1" source="zRqvrmHokOxKd8AB4O5T-17" target="zRqvrmHokOxKd8AB4O5T-18">
          <mxGeometry relative="1" as="geometry" />
        </mxCell>
        <mxCell id="zRqvrmHokOxKd8AB4O5T-17" value="case 2" style="rhombus;whiteSpace=wrap;html=1;" vertex="1" parent="1">
          <mxGeometry x="220" y="580" width="116.5" height="50" as="geometry" />
        </mxCell>
        <mxCell id="zRqvrmHokOxKd8AB4O5T-57" style="edgeStyle=orthogonalEdgeStyle;rounded=0;orthogonalLoop=1;jettySize=auto;html=1;entryX=0;entryY=0.5;entryDx=0;entryDy=0;" edge="1" parent="1" source="zRqvrmHokOxKd8AB4O5T-18" target="zRqvrmHokOxKd8AB4O5T-56">
          <mxGeometry relative="1" as="geometry" />
        </mxCell>
        <mxCell id="zRqvrmHokOxKd8AB4O5T-59" style="edgeStyle=orthogonalEdgeStyle;rounded=0;orthogonalLoop=1;jettySize=auto;html=1;entryX=0.5;entryY=0;entryDx=0;entryDy=0;" edge="1" parent="1" source="zRqvrmHokOxKd8AB4O5T-18" target="zRqvrmHokOxKd8AB4O5T-19">
          <mxGeometry relative="1" as="geometry" />
        </mxCell>
        <mxCell id="zRqvrmHokOxKd8AB4O5T-18" value="case 3" style="rhombus;whiteSpace=wrap;html=1;" vertex="1" parent="1">
          <mxGeometry x="367.25" y="580" width="116.5" height="50" as="geometry" />
        </mxCell>
        <mxCell id="zRqvrmHokOxKd8AB4O5T-99" style="edgeStyle=orthogonalEdgeStyle;rounded=0;orthogonalLoop=1;jettySize=auto;html=1;entryX=0;entryY=0.5;entryDx=0;entryDy=0;" edge="1" parent="1" source="zRqvrmHokOxKd8AB4O5T-19" target="zRqvrmHokOxKd8AB4O5T-60">
          <mxGeometry relative="1" as="geometry" />
        </mxCell>
        <mxCell id="zRqvrmHokOxKd8AB4O5T-100" style="edgeStyle=orthogonalEdgeStyle;rounded=0;orthogonalLoop=1;jettySize=auto;html=1;entryX=1;entryY=0.5;entryDx=0;entryDy=0;" edge="1" parent="1" source="zRqvrmHokOxKd8AB4O5T-19" target="zRqvrmHokOxKd8AB4O5T-20">
          <mxGeometry relative="1" as="geometry" />
        </mxCell>
        <mxCell id="zRqvrmHokOxKd8AB4O5T-19" value="case 4" style="rhombus;whiteSpace=wrap;html=1;" vertex="1" parent="1">
          <mxGeometry x="366.75" y="670" width="116.5" height="50" as="geometry" />
        </mxCell>
        <mxCell id="zRqvrmHokOxKd8AB4O5T-94" style="edgeStyle=orthogonalEdgeStyle;rounded=0;orthogonalLoop=1;jettySize=auto;html=1;entryX=1;entryY=0.5;entryDx=0;entryDy=0;" edge="1" parent="1" source="zRqvrmHokOxKd8AB4O5T-20" target="zRqvrmHokOxKd8AB4O5T-61">
          <mxGeometry relative="1" as="geometry" />
        </mxCell>
        <mxCell id="zRqvrmHokOxKd8AB4O5T-95" style="edgeStyle=orthogonalEdgeStyle;rounded=0;orthogonalLoop=1;jettySize=auto;html=1;entryX=0.5;entryY=0;entryDx=0;entryDy=0;" edge="1" parent="1" source="zRqvrmHokOxKd8AB4O5T-20" target="zRqvrmHokOxKd8AB4O5T-21">
          <mxGeometry relative="1" as="geometry" />
        </mxCell>
        <mxCell id="zRqvrmHokOxKd8AB4O5T-20" value="case 5" style="rhombus;whiteSpace=wrap;html=1;" vertex="1" parent="1">
          <mxGeometry x="210.5" y="670" width="116.5" height="50" as="geometry" />
        </mxCell>
        <mxCell id="zRqvrmHokOxKd8AB4O5T-96" style="edgeStyle=orthogonalEdgeStyle;rounded=0;orthogonalLoop=1;jettySize=auto;html=1;entryX=1;entryY=0.5;entryDx=0;entryDy=0;" edge="1" parent="1" source="zRqvrmHokOxKd8AB4O5T-21" target="zRqvrmHokOxKd8AB4O5T-62">
          <mxGeometry relative="1" as="geometry" />
        </mxCell>
        <mxCell id="zRqvrmHokOxKd8AB4O5T-21" value="case 6" style="rhombus;whiteSpace=wrap;html=1;" vertex="1" parent="1">
          <mxGeometry x="210.5" y="750" width="116.5" height="50" as="geometry" />
        </mxCell>
        <mxCell id="zRqvrmHokOxKd8AB4O5T-98" style="edgeStyle=orthogonalEdgeStyle;rounded=0;orthogonalLoop=1;jettySize=auto;html=1;entryX=0;entryY=0.5;entryDx=0;entryDy=0;" edge="1" parent="1" source="zRqvrmHokOxKd8AB4O5T-22" target="zRqvrmHokOxKd8AB4O5T-80">
          <mxGeometry relative="1" as="geometry" />
        </mxCell>
        <mxCell id="zRqvrmHokOxKd8AB4O5T-101" style="edgeStyle=orthogonalEdgeStyle;rounded=0;orthogonalLoop=1;jettySize=auto;html=1;entryX=0.5;entryY=0;entryDx=0;entryDy=0;" edge="1" parent="1" source="zRqvrmHokOxKd8AB4O5T-22" target="zRqvrmHokOxKd8AB4O5T-23">
          <mxGeometry relative="1" as="geometry" />
        </mxCell>
        <mxCell id="zRqvrmHokOxKd8AB4O5T-22" value="case 7" style="rhombus;whiteSpace=wrap;html=1;" vertex="1" parent="1">
          <mxGeometry x="366.75" y="750" width="116.5" height="50" as="geometry" />
        </mxCell>
        <mxCell id="zRqvrmHokOxKd8AB4O5T-102" style="edgeStyle=orthogonalEdgeStyle;rounded=0;orthogonalLoop=1;jettySize=auto;html=1;entryX=0;entryY=0.5;entryDx=0;entryDy=0;" edge="1" parent="1" source="zRqvrmHokOxKd8AB4O5T-23" target="zRqvrmHokOxKd8AB4O5T-81">
          <mxGeometry relative="1" as="geometry" />
        </mxCell>
        <mxCell id="zRqvrmHokOxKd8AB4O5T-103" style="edgeStyle=orthogonalEdgeStyle;rounded=0;orthogonalLoop=1;jettySize=auto;html=1;entryX=1;entryY=0.5;entryDx=0;entryDy=0;" edge="1" parent="1" source="zRqvrmHokOxKd8AB4O5T-23" target="zRqvrmHokOxKd8AB4O5T-24">
          <mxGeometry relative="1" as="geometry" />
        </mxCell>
        <mxCell id="zRqvrmHokOxKd8AB4O5T-23" value="case 8" style="rhombus;whiteSpace=wrap;html=1;" vertex="1" parent="1">
          <mxGeometry x="367.25" y="830" width="116.5" height="50" as="geometry" />
        </mxCell>
        <mxCell id="zRqvrmHokOxKd8AB4O5T-104" style="edgeStyle=orthogonalEdgeStyle;rounded=0;orthogonalLoop=1;jettySize=auto;html=1;entryX=1;entryY=0.5;entryDx=0;entryDy=0;" edge="1" parent="1" source="zRqvrmHokOxKd8AB4O5T-24" target="zRqvrmHokOxKd8AB4O5T-63">
          <mxGeometry relative="1" as="geometry" />
        </mxCell>
        <mxCell id="zRqvrmHokOxKd8AB4O5T-105" style="edgeStyle=orthogonalEdgeStyle;rounded=0;orthogonalLoop=1;jettySize=auto;html=1;entryX=0.5;entryY=0;entryDx=0;entryDy=0;" edge="1" parent="1" source="zRqvrmHokOxKd8AB4O5T-24" target="zRqvrmHokOxKd8AB4O5T-25">
          <mxGeometry relative="1" as="geometry" />
        </mxCell>
        <mxCell id="zRqvrmHokOxKd8AB4O5T-24" value="case 9" style="rhombus;whiteSpace=wrap;html=1;" vertex="1" parent="1">
          <mxGeometry x="210.5" y="830" width="116.5" height="50" as="geometry" />
        </mxCell>
        <mxCell id="zRqvrmHokOxKd8AB4O5T-106" style="edgeStyle=orthogonalEdgeStyle;rounded=0;orthogonalLoop=1;jettySize=auto;html=1;entryX=1;entryY=0.5;entryDx=0;entryDy=0;" edge="1" parent="1" source="zRqvrmHokOxKd8AB4O5T-25" target="zRqvrmHokOxKd8AB4O5T-64">
          <mxGeometry relative="1" as="geometry" />
        </mxCell>
        <mxCell id="zRqvrmHokOxKd8AB4O5T-107" style="edgeStyle=orthogonalEdgeStyle;rounded=0;orthogonalLoop=1;jettySize=auto;html=1;entryX=0;entryY=0.5;entryDx=0;entryDy=0;" edge="1" parent="1" source="zRqvrmHokOxKd8AB4O5T-25" target="zRqvrmHokOxKd8AB4O5T-26">
          <mxGeometry relative="1" as="geometry" />
        </mxCell>
        <mxCell id="zRqvrmHokOxKd8AB4O5T-25" value="case 10" style="rhombus;whiteSpace=wrap;html=1;" vertex="1" parent="1">
          <mxGeometry x="210.5" y="910" width="116.5" height="50" as="geometry" />
        </mxCell>
        <mxCell id="zRqvrmHokOxKd8AB4O5T-108" style="edgeStyle=orthogonalEdgeStyle;rounded=0;orthogonalLoop=1;jettySize=auto;html=1;entryX=0;entryY=0.5;entryDx=0;entryDy=0;" edge="1" parent="1" source="zRqvrmHokOxKd8AB4O5T-26" target="zRqvrmHokOxKd8AB4O5T-82">
          <mxGeometry relative="1" as="geometry" />
        </mxCell>
        <mxCell id="zRqvrmHokOxKd8AB4O5T-109" style="edgeStyle=orthogonalEdgeStyle;rounded=0;orthogonalLoop=1;jettySize=auto;html=1;entryX=0.5;entryY=0;entryDx=0;entryDy=0;" edge="1" parent="1" source="zRqvrmHokOxKd8AB4O5T-26" target="zRqvrmHokOxKd8AB4O5T-27">
          <mxGeometry relative="1" as="geometry" />
        </mxCell>
        <mxCell id="zRqvrmHokOxKd8AB4O5T-26" value="case 11" style="rhombus;whiteSpace=wrap;html=1;" vertex="1" parent="1">
          <mxGeometry x="367" y="910" width="116.5" height="50" as="geometry" />
        </mxCell>
        <mxCell id="zRqvrmHokOxKd8AB4O5T-110" style="edgeStyle=orthogonalEdgeStyle;rounded=0;orthogonalLoop=1;jettySize=auto;html=1;entryX=0;entryY=0.5;entryDx=0;entryDy=0;" edge="1" parent="1" source="zRqvrmHokOxKd8AB4O5T-27" target="zRqvrmHokOxKd8AB4O5T-83">
          <mxGeometry relative="1" as="geometry" />
        </mxCell>
        <mxCell id="zRqvrmHokOxKd8AB4O5T-112" style="edgeStyle=orthogonalEdgeStyle;rounded=0;orthogonalLoop=1;jettySize=auto;html=1;entryX=1;entryY=0.5;entryDx=0;entryDy=0;" edge="1" parent="1" source="zRqvrmHokOxKd8AB4O5T-27" target="zRqvrmHokOxKd8AB4O5T-28">
          <mxGeometry relative="1" as="geometry" />
        </mxCell>
        <mxCell id="zRqvrmHokOxKd8AB4O5T-27" value="case 12" style="rhombus;whiteSpace=wrap;html=1;" vertex="1" parent="1">
          <mxGeometry x="367.25" y="990" width="116.5" height="50" as="geometry" />
        </mxCell>
        <mxCell id="zRqvrmHokOxKd8AB4O5T-113" style="edgeStyle=orthogonalEdgeStyle;rounded=0;orthogonalLoop=1;jettySize=auto;html=1;entryX=1;entryY=0.5;entryDx=0;entryDy=0;" edge="1" parent="1" source="zRqvrmHokOxKd8AB4O5T-28" target="zRqvrmHokOxKd8AB4O5T-65">
          <mxGeometry relative="1" as="geometry" />
        </mxCell>
        <mxCell id="zRqvrmHokOxKd8AB4O5T-114" style="edgeStyle=orthogonalEdgeStyle;rounded=0;orthogonalLoop=1;jettySize=auto;html=1;entryX=0.5;entryY=0;entryDx=0;entryDy=0;" edge="1" parent="1" source="zRqvrmHokOxKd8AB4O5T-28" target="zRqvrmHokOxKd8AB4O5T-29">
          <mxGeometry relative="1" as="geometry" />
        </mxCell>
        <mxCell id="zRqvrmHokOxKd8AB4O5T-28" value="case 13" style="rhombus;whiteSpace=wrap;html=1;" vertex="1" parent="1">
          <mxGeometry x="210.5" y="990" width="116.5" height="50" as="geometry" />
        </mxCell>
        <mxCell id="zRqvrmHokOxKd8AB4O5T-29" value="case 14" style="rhombus;whiteSpace=wrap;html=1;" vertex="1" parent="1">
          <mxGeometry x="210.5" y="1070" width="116.5" height="50" as="geometry" />
        </mxCell>
        <mxCell id="zRqvrmHokOxKd8AB4O5T-117" style="edgeStyle=orthogonalEdgeStyle;rounded=0;orthogonalLoop=1;jettySize=auto;html=1;entryX=0;entryY=0.5;entryDx=0;entryDy=0;" edge="1" parent="1" source="zRqvrmHokOxKd8AB4O5T-30" target="zRqvrmHokOxKd8AB4O5T-84">
          <mxGeometry relative="1" as="geometry" />
        </mxCell>
        <mxCell id="zRqvrmHokOxKd8AB4O5T-118" style="edgeStyle=orthogonalEdgeStyle;rounded=0;orthogonalLoop=1;jettySize=auto;html=1;entryX=0.5;entryY=0;entryDx=0;entryDy=0;" edge="1" parent="1" source="zRqvrmHokOxKd8AB4O5T-30" target="zRqvrmHokOxKd8AB4O5T-31">
          <mxGeometry relative="1" as="geometry" />
        </mxCell>
        <mxCell id="zRqvrmHokOxKd8AB4O5T-30" value="case 15" style="rhombus;whiteSpace=wrap;html=1;" vertex="1" parent="1">
          <mxGeometry x="366.75" y="1070" width="116.5" height="50" as="geometry" />
        </mxCell>
        <mxCell id="zRqvrmHokOxKd8AB4O5T-119" style="edgeStyle=orthogonalEdgeStyle;rounded=0;orthogonalLoop=1;jettySize=auto;html=1;entryX=0;entryY=0.5;entryDx=0;entryDy=0;" edge="1" parent="1" source="zRqvrmHokOxKd8AB4O5T-31" target="zRqvrmHokOxKd8AB4O5T-85">
          <mxGeometry relative="1" as="geometry" />
        </mxCell>
        <mxCell id="zRqvrmHokOxKd8AB4O5T-120" style="edgeStyle=orthogonalEdgeStyle;rounded=0;orthogonalLoop=1;jettySize=auto;html=1;entryX=1;entryY=0.5;entryDx=0;entryDy=0;" edge="1" parent="1" source="zRqvrmHokOxKd8AB4O5T-31" target="zRqvrmHokOxKd8AB4O5T-32">
          <mxGeometry relative="1" as="geometry" />
        </mxCell>
        <mxCell id="zRqvrmHokOxKd8AB4O5T-31" value="case 16" style="rhombus;whiteSpace=wrap;html=1;" vertex="1" parent="1">
          <mxGeometry x="366.75" y="1150" width="116.5" height="50" as="geometry" />
        </mxCell>
        <mxCell id="zRqvrmHokOxKd8AB4O5T-121" style="edgeStyle=orthogonalEdgeStyle;rounded=0;orthogonalLoop=1;jettySize=auto;html=1;entryX=1;entryY=0.5;entryDx=0;entryDy=0;" edge="1" parent="1" source="zRqvrmHokOxKd8AB4O5T-32" target="zRqvrmHokOxKd8AB4O5T-67">
          <mxGeometry relative="1" as="geometry" />
        </mxCell>
        <mxCell id="zRqvrmHokOxKd8AB4O5T-122" style="edgeStyle=orthogonalEdgeStyle;rounded=0;orthogonalLoop=1;jettySize=auto;html=1;entryX=0.5;entryY=0;entryDx=0;entryDy=0;" edge="1" parent="1" source="zRqvrmHokOxKd8AB4O5T-32" target="zRqvrmHokOxKd8AB4O5T-33">
          <mxGeometry relative="1" as="geometry" />
        </mxCell>
        <mxCell id="zRqvrmHokOxKd8AB4O5T-32" value="case 17" style="rhombus;whiteSpace=wrap;html=1;" vertex="1" parent="1">
          <mxGeometry x="210" y="1150" width="116.5" height="50" as="geometry" />
        </mxCell>
        <mxCell id="zRqvrmHokOxKd8AB4O5T-123" style="edgeStyle=orthogonalEdgeStyle;rounded=0;orthogonalLoop=1;jettySize=auto;html=1;entryX=1;entryY=0.5;entryDx=0;entryDy=0;" edge="1" parent="1" source="zRqvrmHokOxKd8AB4O5T-33" target="zRqvrmHokOxKd8AB4O5T-72">
          <mxGeometry relative="1" as="geometry" />
        </mxCell>
        <mxCell id="zRqvrmHokOxKd8AB4O5T-124" style="edgeStyle=orthogonalEdgeStyle;rounded=0;orthogonalLoop=1;jettySize=auto;html=1;entryX=0;entryY=0.5;entryDx=0;entryDy=0;" edge="1" parent="1" source="zRqvrmHokOxKd8AB4O5T-33" target="zRqvrmHokOxKd8AB4O5T-34">
          <mxGeometry relative="1" as="geometry" />
        </mxCell>
        <mxCell id="zRqvrmHokOxKd8AB4O5T-33" value="case 18" style="rhombus;whiteSpace=wrap;html=1;" vertex="1" parent="1">
          <mxGeometry x="210" y="1230" width="116.5" height="50" as="geometry" />
        </mxCell>
        <mxCell id="zRqvrmHokOxKd8AB4O5T-125" style="edgeStyle=orthogonalEdgeStyle;rounded=0;orthogonalLoop=1;jettySize=auto;html=1;entryX=0;entryY=0.5;entryDx=0;entryDy=0;" edge="1" parent="1" source="zRqvrmHokOxKd8AB4O5T-34" target="zRqvrmHokOxKd8AB4O5T-86">
          <mxGeometry relative="1" as="geometry" />
        </mxCell>
        <mxCell id="zRqvrmHokOxKd8AB4O5T-126" style="edgeStyle=orthogonalEdgeStyle;rounded=0;orthogonalLoop=1;jettySize=auto;html=1;entryX=0.5;entryY=0;entryDx=0;entryDy=0;" edge="1" parent="1" source="zRqvrmHokOxKd8AB4O5T-34" target="zRqvrmHokOxKd8AB4O5T-35">
          <mxGeometry relative="1" as="geometry" />
        </mxCell>
        <mxCell id="zRqvrmHokOxKd8AB4O5T-34" value="case 19" style="rhombus;whiteSpace=wrap;html=1;" vertex="1" parent="1">
          <mxGeometry x="366.75" y="1230" width="116.5" height="50" as="geometry" />
        </mxCell>
        <mxCell id="zRqvrmHokOxKd8AB4O5T-127" style="edgeStyle=orthogonalEdgeStyle;rounded=0;orthogonalLoop=1;jettySize=auto;html=1;entryX=0;entryY=0.5;entryDx=0;entryDy=0;" edge="1" parent="1" source="zRqvrmHokOxKd8AB4O5T-35" target="zRqvrmHokOxKd8AB4O5T-87">
          <mxGeometry relative="1" as="geometry" />
        </mxCell>
        <mxCell id="zRqvrmHokOxKd8AB4O5T-128" style="edgeStyle=orthogonalEdgeStyle;rounded=0;orthogonalLoop=1;jettySize=auto;html=1;entryX=1;entryY=0.5;entryDx=0;entryDy=0;" edge="1" parent="1" source="zRqvrmHokOxKd8AB4O5T-35" target="zRqvrmHokOxKd8AB4O5T-36">
          <mxGeometry relative="1" as="geometry" />
        </mxCell>
        <mxCell id="zRqvrmHokOxKd8AB4O5T-35" value="case 20" style="rhombus;whiteSpace=wrap;html=1;" vertex="1" parent="1">
          <mxGeometry x="366.75" y="1310" width="116.5" height="50" as="geometry" />
        </mxCell>
        <mxCell id="zRqvrmHokOxKd8AB4O5T-129" style="edgeStyle=orthogonalEdgeStyle;rounded=0;orthogonalLoop=1;jettySize=auto;html=1;entryX=1;entryY=0.5;entryDx=0;entryDy=0;" edge="1" parent="1" source="zRqvrmHokOxKd8AB4O5T-36" target="zRqvrmHokOxKd8AB4O5T-73">
          <mxGeometry relative="1" as="geometry" />
        </mxCell>
        <mxCell id="zRqvrmHokOxKd8AB4O5T-130" style="edgeStyle=orthogonalEdgeStyle;rounded=0;orthogonalLoop=1;jettySize=auto;html=1;entryX=0.5;entryY=0;entryDx=0;entryDy=0;" edge="1" parent="1" source="zRqvrmHokOxKd8AB4O5T-36" target="zRqvrmHokOxKd8AB4O5T-37">
          <mxGeometry relative="1" as="geometry" />
        </mxCell>
        <mxCell id="zRqvrmHokOxKd8AB4O5T-36" value="case 21" style="rhombus;whiteSpace=wrap;html=1;" vertex="1" parent="1">
          <mxGeometry x="210" y="1310" width="116.5" height="50" as="geometry" />
        </mxCell>
        <mxCell id="zRqvrmHokOxKd8AB4O5T-131" style="edgeStyle=orthogonalEdgeStyle;rounded=0;orthogonalLoop=1;jettySize=auto;html=1;entryX=1;entryY=0.5;entryDx=0;entryDy=0;" edge="1" parent="1" source="zRqvrmHokOxKd8AB4O5T-37" target="zRqvrmHokOxKd8AB4O5T-74">
          <mxGeometry relative="1" as="geometry" />
        </mxCell>
        <mxCell id="zRqvrmHokOxKd8AB4O5T-132" style="edgeStyle=orthogonalEdgeStyle;rounded=0;orthogonalLoop=1;jettySize=auto;html=1;entryX=0;entryY=0.5;entryDx=0;entryDy=0;" edge="1" parent="1" source="zRqvrmHokOxKd8AB4O5T-37" target="zRqvrmHokOxKd8AB4O5T-38">
          <mxGeometry relative="1" as="geometry" />
        </mxCell>
        <mxCell id="zRqvrmHokOxKd8AB4O5T-37" value="case 22" style="rhombus;whiteSpace=wrap;html=1;" vertex="1" parent="1">
          <mxGeometry x="210" y="1390" width="116.5" height="50" as="geometry" />
        </mxCell>
        <mxCell id="zRqvrmHokOxKd8AB4O5T-133" style="edgeStyle=orthogonalEdgeStyle;rounded=0;orthogonalLoop=1;jettySize=auto;html=1;entryX=0;entryY=0.5;entryDx=0;entryDy=0;" edge="1" parent="1" source="zRqvrmHokOxKd8AB4O5T-38" target="zRqvrmHokOxKd8AB4O5T-88">
          <mxGeometry relative="1" as="geometry" />
        </mxCell>
        <mxCell id="zRqvrmHokOxKd8AB4O5T-134" style="edgeStyle=orthogonalEdgeStyle;rounded=0;orthogonalLoop=1;jettySize=auto;html=1;entryX=0.5;entryY=0;entryDx=0;entryDy=0;" edge="1" parent="1" source="zRqvrmHokOxKd8AB4O5T-38" target="zRqvrmHokOxKd8AB4O5T-39">
          <mxGeometry relative="1" as="geometry" />
        </mxCell>
        <mxCell id="zRqvrmHokOxKd8AB4O5T-38" value="case 23" style="rhombus;whiteSpace=wrap;html=1;" vertex="1" parent="1">
          <mxGeometry x="366.75" y="1390" width="116.5" height="50" as="geometry" />
        </mxCell>
        <mxCell id="zRqvrmHokOxKd8AB4O5T-135" style="edgeStyle=orthogonalEdgeStyle;rounded=0;orthogonalLoop=1;jettySize=auto;html=1;entryX=0;entryY=0.5;entryDx=0;entryDy=0;" edge="1" parent="1" source="zRqvrmHokOxKd8AB4O5T-39" target="zRqvrmHokOxKd8AB4O5T-89">
          <mxGeometry relative="1" as="geometry" />
        </mxCell>
        <mxCell id="zRqvrmHokOxKd8AB4O5T-136" style="edgeStyle=orthogonalEdgeStyle;rounded=0;orthogonalLoop=1;jettySize=auto;html=1;entryX=1;entryY=0.5;entryDx=0;entryDy=0;" edge="1" parent="1" source="zRqvrmHokOxKd8AB4O5T-39" target="zRqvrmHokOxKd8AB4O5T-40">
          <mxGeometry relative="1" as="geometry" />
        </mxCell>
        <mxCell id="zRqvrmHokOxKd8AB4O5T-39" value="case 24" style="rhombus;whiteSpace=wrap;html=1;" vertex="1" parent="1">
          <mxGeometry x="366.75" y="1470" width="116.5" height="50" as="geometry" />
        </mxCell>
        <mxCell id="zRqvrmHokOxKd8AB4O5T-137" style="edgeStyle=orthogonalEdgeStyle;rounded=0;orthogonalLoop=1;jettySize=auto;html=1;entryX=1;entryY=0.5;entryDx=0;entryDy=0;" edge="1" parent="1" source="zRqvrmHokOxKd8AB4O5T-40" target="zRqvrmHokOxKd8AB4O5T-75">
          <mxGeometry relative="1" as="geometry" />
        </mxCell>
        <mxCell id="zRqvrmHokOxKd8AB4O5T-138" style="edgeStyle=orthogonalEdgeStyle;rounded=0;orthogonalLoop=1;jettySize=auto;html=1;" edge="1" parent="1" source="zRqvrmHokOxKd8AB4O5T-40" target="zRqvrmHokOxKd8AB4O5T-41">
          <mxGeometry relative="1" as="geometry" />
        </mxCell>
        <mxCell id="zRqvrmHokOxKd8AB4O5T-40" value="case 25" style="rhombus;whiteSpace=wrap;html=1;" vertex="1" parent="1">
          <mxGeometry x="210" y="1470" width="116.5" height="50" as="geometry" />
        </mxCell>
        <mxCell id="zRqvrmHokOxKd8AB4O5T-140" style="edgeStyle=orthogonalEdgeStyle;rounded=0;orthogonalLoop=1;jettySize=auto;html=1;entryX=1;entryY=0.5;entryDx=0;entryDy=0;" edge="1" parent="1" source="zRqvrmHokOxKd8AB4O5T-41" target="zRqvrmHokOxKd8AB4O5T-76">
          <mxGeometry relative="1" as="geometry" />
        </mxCell>
        <mxCell id="zRqvrmHokOxKd8AB4O5T-41" value="case 26" style="rhombus;whiteSpace=wrap;html=1;" vertex="1" parent="1">
          <mxGeometry x="210" y="1550" width="116.5" height="50" as="geometry" />
        </mxCell>
        <mxCell id="zRqvrmHokOxKd8AB4O5T-141" style="edgeStyle=orthogonalEdgeStyle;rounded=0;orthogonalLoop=1;jettySize=auto;html=1;entryX=0;entryY=0.5;entryDx=0;entryDy=0;" edge="1" parent="1" source="zRqvrmHokOxKd8AB4O5T-42" target="zRqvrmHokOxKd8AB4O5T-90">
          <mxGeometry relative="1" as="geometry" />
        </mxCell>
        <mxCell id="zRqvrmHokOxKd8AB4O5T-142" style="edgeStyle=orthogonalEdgeStyle;rounded=0;orthogonalLoop=1;jettySize=auto;html=1;entryX=0.5;entryY=0;entryDx=0;entryDy=0;" edge="1" parent="1" source="zRqvrmHokOxKd8AB4O5T-42" target="zRqvrmHokOxKd8AB4O5T-43">
          <mxGeometry relative="1" as="geometry" />
        </mxCell>
        <mxCell id="zRqvrmHokOxKd8AB4O5T-42" value="case 27" style="rhombus;whiteSpace=wrap;html=1;" vertex="1" parent="1">
          <mxGeometry x="367.25" y="1550" width="116.5" height="50" as="geometry" />
        </mxCell>
        <mxCell id="zRqvrmHokOxKd8AB4O5T-143" style="edgeStyle=orthogonalEdgeStyle;rounded=0;orthogonalLoop=1;jettySize=auto;html=1;entryX=0;entryY=0.5;entryDx=0;entryDy=0;" edge="1" parent="1" source="zRqvrmHokOxKd8AB4O5T-43" target="zRqvrmHokOxKd8AB4O5T-91">
          <mxGeometry relative="1" as="geometry" />
        </mxCell>
        <mxCell id="zRqvrmHokOxKd8AB4O5T-144" style="edgeStyle=orthogonalEdgeStyle;rounded=0;orthogonalLoop=1;jettySize=auto;html=1;entryX=1;entryY=0.5;entryDx=0;entryDy=0;" edge="1" parent="1" source="zRqvrmHokOxKd8AB4O5T-43" target="zRqvrmHokOxKd8AB4O5T-44">
          <mxGeometry relative="1" as="geometry" />
        </mxCell>
        <mxCell id="zRqvrmHokOxKd8AB4O5T-43" value="case 28" style="rhombus;whiteSpace=wrap;html=1;" vertex="1" parent="1">
          <mxGeometry x="367.25" y="1625" width="116.5" height="50" as="geometry" />
        </mxCell>
        <mxCell id="zRqvrmHokOxKd8AB4O5T-145" style="edgeStyle=orthogonalEdgeStyle;rounded=0;orthogonalLoop=1;jettySize=auto;html=1;entryX=1;entryY=0.5;entryDx=0;entryDy=0;" edge="1" parent="1" source="zRqvrmHokOxKd8AB4O5T-44" target="zRqvrmHokOxKd8AB4O5T-78">
          <mxGeometry relative="1" as="geometry" />
        </mxCell>
        <mxCell id="zRqvrmHokOxKd8AB4O5T-146" style="edgeStyle=orthogonalEdgeStyle;rounded=0;orthogonalLoop=1;jettySize=auto;html=1;entryX=0.5;entryY=0;entryDx=0;entryDy=0;" edge="1" parent="1" source="zRqvrmHokOxKd8AB4O5T-44" target="zRqvrmHokOxKd8AB4O5T-45">
          <mxGeometry relative="1" as="geometry" />
        </mxCell>
        <mxCell id="zRqvrmHokOxKd8AB4O5T-44" value="case 29" style="rhombus;whiteSpace=wrap;html=1;" vertex="1" parent="1">
          <mxGeometry x="210" y="1625" width="116.5" height="50" as="geometry" />
        </mxCell>
        <mxCell id="zRqvrmHokOxKd8AB4O5T-147" style="edgeStyle=orthogonalEdgeStyle;rounded=0;orthogonalLoop=1;jettySize=auto;html=1;entryX=1;entryY=0.5;entryDx=0;entryDy=0;" edge="1" parent="1" source="zRqvrmHokOxKd8AB4O5T-45" target="zRqvrmHokOxKd8AB4O5T-79">
          <mxGeometry relative="1" as="geometry" />
        </mxCell>
        <mxCell id="zRqvrmHokOxKd8AB4O5T-45" value="case 30" style="rhombus;whiteSpace=wrap;html=1;" vertex="1" parent="1">
          <mxGeometry x="210" y="1700" width="116.5" height="50" as="geometry" />
        </mxCell>
        <mxCell id="zRqvrmHokOxKd8AB4O5T-48" style="edgeStyle=orthogonalEdgeStyle;rounded=0;orthogonalLoop=1;jettySize=auto;html=1;exitX=0;exitY=0.5;exitDx=0;exitDy=0;entryX=1;entryY=0.5;entryDx=0;entryDy=0;" edge="1" parent="1" source="zRqvrmHokOxKd8AB4O5T-12" target="zRqvrmHokOxKd8AB4O5T-15">
          <mxGeometry relative="1" as="geometry">
            <mxPoint x="360" y="580" as="targetPoint" />
          </mxGeometry>
        </mxCell>
        <mxCell id="zRqvrmHokOxKd8AB4O5T-49" value="output&lt;br&gt;&quot;zero&quot;" style="shape=parallelogram;perimeter=parallelogramPerimeter;whiteSpace=wrap;html=1;fixedSize=1;" vertex="1" parent="1">
          <mxGeometry x="530" y="495" width="120" height="40" as="geometry" />
        </mxCell>
        <mxCell id="zRqvrmHokOxKd8AB4O5T-51" value="output&lt;br&gt;&quot;one&quot;" style="shape=parallelogram;perimeter=parallelogramPerimeter;whiteSpace=wrap;html=1;fixedSize=1;" vertex="1" parent="1">
          <mxGeometry x="50" y="495" width="120" height="40" as="geometry" />
        </mxCell>
        <mxCell id="zRqvrmHokOxKd8AB4O5T-54" value="output&lt;br&gt;&quot;two&quot;" style="shape=parallelogram;perimeter=parallelogramPerimeter;whiteSpace=wrap;html=1;fixedSize=1;" vertex="1" parent="1">
          <mxGeometry x="50" y="585" width="120" height="40" as="geometry" />
        </mxCell>
        <mxCell id="zRqvrmHokOxKd8AB4O5T-56" value="output&lt;br&gt;&quot;three&quot;" style="shape=parallelogram;perimeter=parallelogramPerimeter;whiteSpace=wrap;html=1;fixedSize=1;" vertex="1" parent="1">
          <mxGeometry x="530" y="585" width="120" height="40" as="geometry" />
        </mxCell>
        <mxCell id="zRqvrmHokOxKd8AB4O5T-60" value="output&lt;br&gt;&quot;four&quot;" style="shape=parallelogram;perimeter=parallelogramPerimeter;whiteSpace=wrap;html=1;fixedSize=1;" vertex="1" parent="1">
          <mxGeometry x="530" y="675" width="120" height="40" as="geometry" />
        </mxCell>
        <mxCell id="zRqvrmHokOxKd8AB4O5T-61" value="output&lt;br&gt;&quot;five&quot;" style="shape=parallelogram;perimeter=parallelogramPerimeter;whiteSpace=wrap;html=1;fixedSize=1;" vertex="1" parent="1">
          <mxGeometry x="50" y="675" width="120" height="40" as="geometry" />
        </mxCell>
        <mxCell id="zRqvrmHokOxKd8AB4O5T-62" value="output&lt;br&gt;&quot;six&quot;" style="shape=parallelogram;perimeter=parallelogramPerimeter;whiteSpace=wrap;html=1;fixedSize=1;" vertex="1" parent="1">
          <mxGeometry x="50" y="755" width="120" height="40" as="geometry" />
        </mxCell>
        <mxCell id="zRqvrmHokOxKd8AB4O5T-63" value="output&lt;br&gt;&quot;nine&quot;" style="shape=parallelogram;perimeter=parallelogramPerimeter;whiteSpace=wrap;html=1;fixedSize=1;" vertex="1" parent="1">
          <mxGeometry x="50" y="835" width="120" height="40" as="geometry" />
        </mxCell>
        <mxCell id="zRqvrmHokOxKd8AB4O5T-175" style="edgeStyle=orthogonalEdgeStyle;rounded=0;orthogonalLoop=1;jettySize=auto;html=1;entryX=1;entryY=0.5;entryDx=0;entryDy=0;entryPerimeter=0;" edge="1" parent="1" source="zRqvrmHokOxKd8AB4O5T-64" target="zRqvrmHokOxKd8AB4O5T-153">
          <mxGeometry relative="1" as="geometry">
            <mxPoint x="-130" y="920" as="targetPoint" />
          </mxGeometry>
        </mxCell>
        <mxCell id="zRqvrmHokOxKd8AB4O5T-64" value="output&lt;br&gt;&quot;zero&quot;" style="shape=parallelogram;perimeter=parallelogramPerimeter;whiteSpace=wrap;html=1;fixedSize=1;" vertex="1" parent="1">
          <mxGeometry x="50" y="915" width="120" height="40" as="geometry" />
        </mxCell>
        <mxCell id="zRqvrmHokOxKd8AB4O5T-65" value="output&lt;br&gt;&quot;thirteen&quot;" style="shape=parallelogram;perimeter=parallelogramPerimeter;whiteSpace=wrap;html=1;fixedSize=1;" vertex="1" parent="1">
          <mxGeometry x="50" y="995" width="120" height="40" as="geometry" />
        </mxCell>
        <mxCell id="zRqvrmHokOxKd8AB4O5T-177" style="edgeStyle=orthogonalEdgeStyle;rounded=0;orthogonalLoop=1;jettySize=auto;html=1;entryX=1;entryY=0.5;entryDx=0;entryDy=0;entryPerimeter=0;" edge="1" parent="1" source="zRqvrmHokOxKd8AB4O5T-66" target="zRqvrmHokOxKd8AB4O5T-153">
          <mxGeometry relative="1" as="geometry">
            <mxPoint x="-110" y="1020" as="targetPoint" />
          </mxGeometry>
        </mxCell>
        <mxCell id="zRqvrmHokOxKd8AB4O5T-66" value="output&lt;br&gt;&quot;fourteen&quot;" style="shape=parallelogram;perimeter=parallelogramPerimeter;whiteSpace=wrap;html=1;fixedSize=1;" vertex="1" parent="1">
          <mxGeometry x="50" y="1075" width="120" height="40" as="geometry" />
        </mxCell>
        <mxCell id="zRqvrmHokOxKd8AB4O5T-67" value="output&lt;br&gt;&quot;seventeen&quot;" style="shape=parallelogram;perimeter=parallelogramPerimeter;whiteSpace=wrap;html=1;fixedSize=1;" vertex="1" parent="1">
          <mxGeometry x="50" y="1155" width="120" height="40" as="geometry" />
        </mxCell>
        <mxCell id="zRqvrmHokOxKd8AB4O5T-72" value="output&lt;br&gt;&quot;eightteen&quot;" style="shape=parallelogram;perimeter=parallelogramPerimeter;whiteSpace=wrap;html=1;fixedSize=1;" vertex="1" parent="1">
          <mxGeometry x="50" y="1235" width="120" height="40" as="geometry" />
        </mxCell>
        <mxCell id="zRqvrmHokOxKd8AB4O5T-73" value="output&lt;br&gt;&quot;twentyone&quot;" style="shape=parallelogram;perimeter=parallelogramPerimeter;whiteSpace=wrap;html=1;fixedSize=1;" vertex="1" parent="1">
          <mxGeometry x="50" y="1315" width="120" height="40" as="geometry" />
        </mxCell>
        <mxCell id="zRqvrmHokOxKd8AB4O5T-74" value="output&lt;br&gt;&quot;twentytwo&quot;" style="shape=parallelogram;perimeter=parallelogramPerimeter;whiteSpace=wrap;html=1;fixedSize=1;" vertex="1" parent="1">
          <mxGeometry x="50" y="1395" width="120" height="40" as="geometry" />
        </mxCell>
        <mxCell id="zRqvrmHokOxKd8AB4O5T-75" value="output&lt;br&gt;&quot;twentyfive&quot;" style="shape=parallelogram;perimeter=parallelogramPerimeter;whiteSpace=wrap;html=1;fixedSize=1;" vertex="1" parent="1">
          <mxGeometry x="50" y="1475" width="120" height="40" as="geometry" />
        </mxCell>
        <mxCell id="zRqvrmHokOxKd8AB4O5T-76" value="output&lt;br&gt;&quot;twentysix&quot;" style="shape=parallelogram;perimeter=parallelogramPerimeter;whiteSpace=wrap;html=1;fixedSize=1;" vertex="1" parent="1">
          <mxGeometry x="50" y="1555" width="120" height="40" as="geometry" />
        </mxCell>
        <mxCell id="zRqvrmHokOxKd8AB4O5T-78" value="output&lt;br&gt;&quot;twentynine&quot;" style="shape=parallelogram;perimeter=parallelogramPerimeter;whiteSpace=wrap;html=1;fixedSize=1;" vertex="1" parent="1">
          <mxGeometry x="50" y="1630" width="120" height="40" as="geometry" />
        </mxCell>
        <mxCell id="zRqvrmHokOxKd8AB4O5T-79" value="output&lt;br&gt;&quot;thirty&quot;" style="shape=parallelogram;perimeter=parallelogramPerimeter;whiteSpace=wrap;html=1;fixedSize=1;" vertex="1" parent="1">
          <mxGeometry x="50" y="1705" width="120" height="40" as="geometry" />
        </mxCell>
        <mxCell id="zRqvrmHokOxKd8AB4O5T-80" value="output&lt;br&gt;&quot;seven&quot;" style="shape=parallelogram;perimeter=parallelogramPerimeter;whiteSpace=wrap;html=1;fixedSize=1;" vertex="1" parent="1">
          <mxGeometry x="530" y="755" width="120" height="40" as="geometry" />
        </mxCell>
        <mxCell id="zRqvrmHokOxKd8AB4O5T-81" value="output&lt;br&gt;&quot;ten&quot;" style="shape=parallelogram;perimeter=parallelogramPerimeter;whiteSpace=wrap;html=1;fixedSize=1;" vertex="1" parent="1">
          <mxGeometry x="530" y="835" width="120" height="40" as="geometry" />
        </mxCell>
        <mxCell id="zRqvrmHokOxKd8AB4O5T-82" value="output&lt;br&gt;&quot;eleven&quot;" style="shape=parallelogram;perimeter=parallelogramPerimeter;whiteSpace=wrap;html=1;fixedSize=1;" vertex="1" parent="1">
          <mxGeometry x="530" y="915" width="120" height="40" as="geometry" />
        </mxCell>
        <mxCell id="zRqvrmHokOxKd8AB4O5T-83" value="output&lt;br&gt;&quot;twelve&quot;" style="shape=parallelogram;perimeter=parallelogramPerimeter;whiteSpace=wrap;html=1;fixedSize=1;" vertex="1" parent="1">
          <mxGeometry x="530" y="995" width="120" height="40" as="geometry" />
        </mxCell>
        <mxCell id="zRqvrmHokOxKd8AB4O5T-84" value="output&lt;br&gt;&quot;fifteen&quot;" style="shape=parallelogram;perimeter=parallelogramPerimeter;whiteSpace=wrap;html=1;fixedSize=1;" vertex="1" parent="1">
          <mxGeometry x="530" y="1075" width="120" height="40" as="geometry" />
        </mxCell>
        <mxCell id="zRqvrmHokOxKd8AB4O5T-85" value="output&lt;br&gt;&quot;sixteen&quot;" style="shape=parallelogram;perimeter=parallelogramPerimeter;whiteSpace=wrap;html=1;fixedSize=1;" vertex="1" parent="1">
          <mxGeometry x="530" y="1155" width="120" height="40" as="geometry" />
        </mxCell>
        <mxCell id="zRqvrmHokOxKd8AB4O5T-86" value="output&lt;br&gt;&quot;nineteen&quot;" style="shape=parallelogram;perimeter=parallelogramPerimeter;whiteSpace=wrap;html=1;fixedSize=1;" vertex="1" parent="1">
          <mxGeometry x="530" y="1235" width="120" height="40" as="geometry" />
        </mxCell>
        <mxCell id="zRqvrmHokOxKd8AB4O5T-87" value="output&lt;br&gt;&quot;twenty&quot;" style="shape=parallelogram;perimeter=parallelogramPerimeter;whiteSpace=wrap;html=1;fixedSize=1;" vertex="1" parent="1">
          <mxGeometry x="530" y="1315" width="120" height="40" as="geometry" />
        </mxCell>
        <mxCell id="zRqvrmHokOxKd8AB4O5T-88" value="output&lt;br&gt;&quot;twentythree&quot;" style="shape=parallelogram;perimeter=parallelogramPerimeter;whiteSpace=wrap;html=1;fixedSize=1;" vertex="1" parent="1">
          <mxGeometry x="530" y="1395" width="120" height="40" as="geometry" />
        </mxCell>
        <mxCell id="zRqvrmHokOxKd8AB4O5T-89" value="output&lt;br&gt;&quot;twentyfour&quot;" style="shape=parallelogram;perimeter=parallelogramPerimeter;whiteSpace=wrap;html=1;fixedSize=1;" vertex="1" parent="1">
          <mxGeometry x="530" y="1475" width="120" height="40" as="geometry" />
        </mxCell>
        <mxCell id="zRqvrmHokOxKd8AB4O5T-90" value="output&lt;br&gt;&quot;twentyseven&quot;" style="shape=parallelogram;perimeter=parallelogramPerimeter;whiteSpace=wrap;html=1;fixedSize=1;" vertex="1" parent="1">
          <mxGeometry x="530" y="1555" width="120" height="40" as="geometry" />
        </mxCell>
        <mxCell id="zRqvrmHokOxKd8AB4O5T-91" value="output&lt;br&gt;&quot;twentyeight&quot;" style="shape=parallelogram;perimeter=parallelogramPerimeter;whiteSpace=wrap;html=1;fixedSize=1;" vertex="1" parent="1">
          <mxGeometry x="530" y="1630" width="120" height="40" as="geometry" />
        </mxCell>
        <mxCell id="zRqvrmHokOxKd8AB4O5T-97" style="edgeStyle=orthogonalEdgeStyle;rounded=0;orthogonalLoop=1;jettySize=auto;html=1;entryX=0;entryY=0.5;entryDx=0;entryDy=0;" edge="1" parent="1" source="zRqvrmHokOxKd8AB4O5T-21" target="zRqvrmHokOxKd8AB4O5T-22">
          <mxGeometry relative="1" as="geometry" />
        </mxCell>
        <mxCell id="zRqvrmHokOxKd8AB4O5T-115" style="edgeStyle=orthogonalEdgeStyle;rounded=0;orthogonalLoop=1;jettySize=auto;html=1;entryX=1;entryY=0.5;entryDx=0;entryDy=0;" edge="1" parent="1" source="zRqvrmHokOxKd8AB4O5T-29" target="zRqvrmHokOxKd8AB4O5T-66">
          <mxGeometry relative="1" as="geometry" />
        </mxCell>
        <mxCell id="zRqvrmHokOxKd8AB4O5T-116" style="edgeStyle=orthogonalEdgeStyle;rounded=0;orthogonalLoop=1;jettySize=auto;html=1;entryX=0;entryY=0.5;entryDx=0;entryDy=0;" edge="1" parent="1" source="zRqvrmHokOxKd8AB4O5T-29" target="zRqvrmHokOxKd8AB4O5T-30">
          <mxGeometry relative="1" as="geometry" />
        </mxCell>
        <mxCell id="zRqvrmHokOxKd8AB4O5T-139" style="edgeStyle=orthogonalEdgeStyle;rounded=0;orthogonalLoop=1;jettySize=auto;html=1;entryX=0;entryY=0.5;entryDx=0;entryDy=0;" edge="1" parent="1" source="zRqvrmHokOxKd8AB4O5T-41" target="zRqvrmHokOxKd8AB4O5T-42">
          <mxGeometry relative="1" as="geometry" />
        </mxCell>
        <mxCell id="zRqvrmHokOxKd8AB4O5T-150" value="&lt;font style=&quot;font-size: 24px;&quot;&gt;end&lt;/font&gt;" style="strokeWidth=2;html=1;shape=mxgraph.flowchart.start_1;whiteSpace=wrap;" vertex="1" parent="1">
          <mxGeometry x="850" y="980" width="100" height="60" as="geometry" />
        </mxCell>
        <mxCell id="zRqvrmHokOxKd8AB4O5T-153" value="&lt;font style=&quot;font-size: 24px;&quot;&gt;end&lt;/font&gt;" style="strokeWidth=2;html=1;shape=mxgraph.flowchart.start_1;whiteSpace=wrap;" vertex="1" parent="1">
          <mxGeometry x="-210" y="990" width="100" height="60" as="geometry" />
        </mxCell>
        <mxCell id="zRqvrmHokOxKd8AB4O5T-154" style="edgeStyle=orthogonalEdgeStyle;rounded=0;orthogonalLoop=1;jettySize=auto;html=1;entryX=0;entryY=0.5;entryDx=0;entryDy=0;entryPerimeter=0;" edge="1" parent="1" source="zRqvrmHokOxKd8AB4O5T-81" target="zRqvrmHokOxKd8AB4O5T-150">
          <mxGeometry relative="1" as="geometry" />
        </mxCell>
        <mxCell id="zRqvrmHokOxKd8AB4O5T-155" style="edgeStyle=orthogonalEdgeStyle;rounded=0;orthogonalLoop=1;jettySize=auto;html=1;entryX=0;entryY=0.5;entryDx=0;entryDy=0;entryPerimeter=0;" edge="1" parent="1" source="zRqvrmHokOxKd8AB4O5T-49" target="zRqvrmHokOxKd8AB4O5T-150">
          <mxGeometry relative="1" as="geometry" />
        </mxCell>
        <mxCell id="zRqvrmHokOxKd8AB4O5T-156" style="edgeStyle=orthogonalEdgeStyle;rounded=0;orthogonalLoop=1;jettySize=auto;html=1;entryX=0;entryY=0.5;entryDx=0;entryDy=0;entryPerimeter=0;" edge="1" parent="1" source="zRqvrmHokOxKd8AB4O5T-56" target="zRqvrmHokOxKd8AB4O5T-150">
          <mxGeometry relative="1" as="geometry" />
        </mxCell>
        <mxCell id="zRqvrmHokOxKd8AB4O5T-157" style="edgeStyle=orthogonalEdgeStyle;rounded=0;orthogonalLoop=1;jettySize=auto;html=1;entryX=0;entryY=0.5;entryDx=0;entryDy=0;entryPerimeter=0;" edge="1" parent="1" source="zRqvrmHokOxKd8AB4O5T-60" target="zRqvrmHokOxKd8AB4O5T-150">
          <mxGeometry relative="1" as="geometry" />
        </mxCell>
        <mxCell id="zRqvrmHokOxKd8AB4O5T-158" style="edgeStyle=orthogonalEdgeStyle;rounded=0;orthogonalLoop=1;jettySize=auto;html=1;entryX=0;entryY=0.5;entryDx=0;entryDy=0;entryPerimeter=0;" edge="1" parent="1" source="zRqvrmHokOxKd8AB4O5T-80" target="zRqvrmHokOxKd8AB4O5T-150">
          <mxGeometry relative="1" as="geometry" />
        </mxCell>
        <mxCell id="zRqvrmHokOxKd8AB4O5T-159" style="edgeStyle=orthogonalEdgeStyle;rounded=0;orthogonalLoop=1;jettySize=auto;html=1;entryX=0;entryY=0.5;entryDx=0;entryDy=0;entryPerimeter=0;" edge="1" parent="1" source="zRqvrmHokOxKd8AB4O5T-82" target="zRqvrmHokOxKd8AB4O5T-150">
          <mxGeometry relative="1" as="geometry" />
        </mxCell>
        <mxCell id="zRqvrmHokOxKd8AB4O5T-160" style="edgeStyle=orthogonalEdgeStyle;rounded=0;orthogonalLoop=1;jettySize=auto;html=1;entryX=0;entryY=0.5;entryDx=0;entryDy=0;entryPerimeter=0;" edge="1" parent="1" source="zRqvrmHokOxKd8AB4O5T-83" target="zRqvrmHokOxKd8AB4O5T-150">
          <mxGeometry relative="1" as="geometry" />
        </mxCell>
        <mxCell id="zRqvrmHokOxKd8AB4O5T-161" style="edgeStyle=orthogonalEdgeStyle;rounded=0;orthogonalLoop=1;jettySize=auto;html=1;entryX=0;entryY=0.5;entryDx=0;entryDy=0;entryPerimeter=0;" edge="1" parent="1" source="zRqvrmHokOxKd8AB4O5T-84" target="zRqvrmHokOxKd8AB4O5T-150">
          <mxGeometry relative="1" as="geometry" />
        </mxCell>
        <mxCell id="zRqvrmHokOxKd8AB4O5T-162" style="edgeStyle=orthogonalEdgeStyle;rounded=0;orthogonalLoop=1;jettySize=auto;html=1;entryX=0;entryY=0.5;entryDx=0;entryDy=0;entryPerimeter=0;" edge="1" parent="1" source="zRqvrmHokOxKd8AB4O5T-85" target="zRqvrmHokOxKd8AB4O5T-150">
          <mxGeometry relative="1" as="geometry" />
        </mxCell>
        <mxCell id="zRqvrmHokOxKd8AB4O5T-163" style="edgeStyle=orthogonalEdgeStyle;rounded=0;orthogonalLoop=1;jettySize=auto;html=1;entryX=0;entryY=0.5;entryDx=0;entryDy=0;entryPerimeter=0;" edge="1" parent="1" source="zRqvrmHokOxKd8AB4O5T-86" target="zRqvrmHokOxKd8AB4O5T-150">
          <mxGeometry relative="1" as="geometry" />
        </mxCell>
        <mxCell id="zRqvrmHokOxKd8AB4O5T-164" style="edgeStyle=orthogonalEdgeStyle;rounded=0;orthogonalLoop=1;jettySize=auto;html=1;entryX=0;entryY=0.5;entryDx=0;entryDy=0;entryPerimeter=0;" edge="1" parent="1" source="zRqvrmHokOxKd8AB4O5T-87" target="zRqvrmHokOxKd8AB4O5T-150">
          <mxGeometry relative="1" as="geometry" />
        </mxCell>
        <mxCell id="zRqvrmHokOxKd8AB4O5T-165" style="edgeStyle=orthogonalEdgeStyle;rounded=0;orthogonalLoop=1;jettySize=auto;html=1;entryX=0;entryY=0.5;entryDx=0;entryDy=0;entryPerimeter=0;" edge="1" parent="1" source="zRqvrmHokOxKd8AB4O5T-88" target="zRqvrmHokOxKd8AB4O5T-150">
          <mxGeometry relative="1" as="geometry" />
        </mxCell>
        <mxCell id="zRqvrmHokOxKd8AB4O5T-166" style="edgeStyle=orthogonalEdgeStyle;rounded=0;orthogonalLoop=1;jettySize=auto;html=1;entryX=0;entryY=0.5;entryDx=0;entryDy=0;entryPerimeter=0;" edge="1" parent="1" source="zRqvrmHokOxKd8AB4O5T-89" target="zRqvrmHokOxKd8AB4O5T-150">
          <mxGeometry relative="1" as="geometry" />
        </mxCell>
        <mxCell id="zRqvrmHokOxKd8AB4O5T-167" style="edgeStyle=orthogonalEdgeStyle;rounded=0;orthogonalLoop=1;jettySize=auto;html=1;entryX=0;entryY=0.5;entryDx=0;entryDy=0;entryPerimeter=0;" edge="1" parent="1" source="zRqvrmHokOxKd8AB4O5T-90" target="zRqvrmHokOxKd8AB4O5T-150">
          <mxGeometry relative="1" as="geometry" />
        </mxCell>
        <mxCell id="zRqvrmHokOxKd8AB4O5T-168" style="edgeStyle=orthogonalEdgeStyle;rounded=0;orthogonalLoop=1;jettySize=auto;html=1;entryX=0;entryY=0.5;entryDx=0;entryDy=0;entryPerimeter=0;" edge="1" parent="1" source="zRqvrmHokOxKd8AB4O5T-91" target="zRqvrmHokOxKd8AB4O5T-150">
          <mxGeometry relative="1" as="geometry" />
        </mxCell>
        <mxCell id="zRqvrmHokOxKd8AB4O5T-169" style="edgeStyle=orthogonalEdgeStyle;rounded=0;orthogonalLoop=1;jettySize=auto;html=1;entryX=1;entryY=0.5;entryDx=0;entryDy=0;entryPerimeter=0;" edge="1" parent="1" source="zRqvrmHokOxKd8AB4O5T-51" target="zRqvrmHokOxKd8AB4O5T-153">
          <mxGeometry relative="1" as="geometry" />
        </mxCell>
        <mxCell id="zRqvrmHokOxKd8AB4O5T-170" style="edgeStyle=orthogonalEdgeStyle;rounded=0;orthogonalLoop=1;jettySize=auto;html=1;entryX=1;entryY=0.5;entryDx=0;entryDy=0;entryPerimeter=0;" edge="1" parent="1" source="zRqvrmHokOxKd8AB4O5T-54" target="zRqvrmHokOxKd8AB4O5T-153">
          <mxGeometry relative="1" as="geometry" />
        </mxCell>
        <mxCell id="zRqvrmHokOxKd8AB4O5T-172" style="edgeStyle=orthogonalEdgeStyle;rounded=0;orthogonalLoop=1;jettySize=auto;html=1;entryX=1;entryY=0.5;entryDx=0;entryDy=0;entryPerimeter=0;" edge="1" parent="1" source="zRqvrmHokOxKd8AB4O5T-61" target="zRqvrmHokOxKd8AB4O5T-153">
          <mxGeometry relative="1" as="geometry" />
        </mxCell>
        <mxCell id="zRqvrmHokOxKd8AB4O5T-173" style="edgeStyle=orthogonalEdgeStyle;rounded=0;orthogonalLoop=1;jettySize=auto;html=1;entryX=1;entryY=0.5;entryDx=0;entryDy=0;entryPerimeter=0;" edge="1" parent="1" source="zRqvrmHokOxKd8AB4O5T-62" target="zRqvrmHokOxKd8AB4O5T-153">
          <mxGeometry relative="1" as="geometry" />
        </mxCell>
        <mxCell id="zRqvrmHokOxKd8AB4O5T-174" style="edgeStyle=orthogonalEdgeStyle;rounded=0;orthogonalLoop=1;jettySize=auto;html=1;entryX=1;entryY=0.5;entryDx=0;entryDy=0;entryPerimeter=0;" edge="1" parent="1" source="zRqvrmHokOxKd8AB4O5T-63" target="zRqvrmHokOxKd8AB4O5T-153">
          <mxGeometry relative="1" as="geometry" />
        </mxCell>
        <mxCell id="zRqvrmHokOxKd8AB4O5T-176" style="edgeStyle=orthogonalEdgeStyle;rounded=0;orthogonalLoop=1;jettySize=auto;html=1;entryX=1;entryY=0.5;entryDx=0;entryDy=0;entryPerimeter=0;" edge="1" parent="1" source="zRqvrmHokOxKd8AB4O5T-65" target="zRqvrmHokOxKd8AB4O5T-153">
          <mxGeometry relative="1" as="geometry" />
        </mxCell>
        <mxCell id="zRqvrmHokOxKd8AB4O5T-178" style="edgeStyle=orthogonalEdgeStyle;rounded=0;orthogonalLoop=1;jettySize=auto;html=1;entryX=1;entryY=0.5;entryDx=0;entryDy=0;entryPerimeter=0;" edge="1" parent="1" source="zRqvrmHokOxKd8AB4O5T-67" target="zRqvrmHokOxKd8AB4O5T-153">
          <mxGeometry relative="1" as="geometry" />
        </mxCell>
        <mxCell id="zRqvrmHokOxKd8AB4O5T-179" style="edgeStyle=orthogonalEdgeStyle;rounded=0;orthogonalLoop=1;jettySize=auto;html=1;entryX=1;entryY=0.5;entryDx=0;entryDy=0;entryPerimeter=0;" edge="1" parent="1" source="zRqvrmHokOxKd8AB4O5T-72" target="zRqvrmHokOxKd8AB4O5T-153">
          <mxGeometry relative="1" as="geometry" />
        </mxCell>
        <mxCell id="zRqvrmHokOxKd8AB4O5T-180" style="edgeStyle=orthogonalEdgeStyle;rounded=0;orthogonalLoop=1;jettySize=auto;html=1;entryX=1;entryY=0.5;entryDx=0;entryDy=0;entryPerimeter=0;" edge="1" parent="1" source="zRqvrmHokOxKd8AB4O5T-73" target="zRqvrmHokOxKd8AB4O5T-153">
          <mxGeometry relative="1" as="geometry" />
        </mxCell>
        <mxCell id="zRqvrmHokOxKd8AB4O5T-181" style="edgeStyle=orthogonalEdgeStyle;rounded=0;orthogonalLoop=1;jettySize=auto;html=1;entryX=1;entryY=0.5;entryDx=0;entryDy=0;entryPerimeter=0;" edge="1" parent="1" source="zRqvrmHokOxKd8AB4O5T-74" target="zRqvrmHokOxKd8AB4O5T-153">
          <mxGeometry relative="1" as="geometry" />
        </mxCell>
        <mxCell id="zRqvrmHokOxKd8AB4O5T-182" style="edgeStyle=orthogonalEdgeStyle;rounded=0;orthogonalLoop=1;jettySize=auto;html=1;entryX=1;entryY=0.5;entryDx=0;entryDy=0;entryPerimeter=0;" edge="1" parent="1" source="zRqvrmHokOxKd8AB4O5T-75" target="zRqvrmHokOxKd8AB4O5T-153">
          <mxGeometry relative="1" as="geometry" />
        </mxCell>
        <mxCell id="zRqvrmHokOxKd8AB4O5T-183" style="edgeStyle=orthogonalEdgeStyle;rounded=0;orthogonalLoop=1;jettySize=auto;html=1;entryX=1;entryY=0.5;entryDx=0;entryDy=0;entryPerimeter=0;" edge="1" parent="1" source="zRqvrmHokOxKd8AB4O5T-76" target="zRqvrmHokOxKd8AB4O5T-153">
          <mxGeometry relative="1" as="geometry" />
        </mxCell>
        <mxCell id="zRqvrmHokOxKd8AB4O5T-184" style="edgeStyle=orthogonalEdgeStyle;rounded=0;orthogonalLoop=1;jettySize=auto;html=1;entryX=1;entryY=0.5;entryDx=0;entryDy=0;entryPerimeter=0;" edge="1" parent="1" source="zRqvrmHokOxKd8AB4O5T-78" target="zRqvrmHokOxKd8AB4O5T-153">
          <mxGeometry relative="1" as="geometry" />
        </mxCell>
        <mxCell id="zRqvrmHokOxKd8AB4O5T-185" style="edgeStyle=orthogonalEdgeStyle;rounded=0;orthogonalLoop=1;jettySize=auto;html=1;entryX=1;entryY=0.5;entryDx=0;entryDy=0;entryPerimeter=0;" edge="1" parent="1" source="zRqvrmHokOxKd8AB4O5T-79" target="zRqvrmHokOxKd8AB4O5T-153">
          <mxGeometry relative="1" as="geometry" />
        </mxCell>
      </root>
    </mxGraphModel>
  </diagram>
</mxfile>
